<svg xmlns="http://www.w3.org/2000/svg" viewBox="0 0 24 24" xmlns:v="https://vecta.io/nano"><path d="M23.559 14.723a.527.527 0 0 0-.056-.119c-.139-.263-.477-.342-1.007-.232-1.653.341-2.294.131-2.526-.019 1.342-2.048 2.445-4.522 3.041-6.83.271-1.051.798-3.524.122-4.732a1.564 1.564 0 0 0-.151-.235C21.693.909 19.801.025 17.51.001c-1.495-.016-2.77.346-3.116.479a9.449 9.449 0 0 0-.516-.082A8.044 8.044 0 0 0 12.566.27c-1.182-.018-2.204.264-3.05.841C8.659.79 4.728-.534 2.295 1.19.936 2.153.309 3.873.43 6.304c.041.818.507 3.334 1.242 5.744.46 1.506.939 2.702 1.433 3.582.553.994 1.126 1.593 1.714 1.79.447.149 1.133.144 1.858-.728l1.945-2.207c.435.236.906.363 1.39.377a.057.057 0 0 0 0 .004 11.031 11.031 0 0 0-.247.305c-.339.43-.409.52-1.5.744-.31.064-1.134.234-1.146.811a.59.59 0 0 0 .092.327c.227.423.922.61 1.015.633 1.335.334 2.504.092 3.371-.679-.017 2.231.078 4.417.345 5.087.221.553.762 1.904 2.469 1.904.251 0 .526-.029.83-.094 1.782-.382 2.556-1.17 2.855-2.906l.539-4.101c.017-.07.036-.121.057-.136.001 0 .07-.047.427.031a.367.367 0 0 0 .044.007l.254.022.015.001c.847.038 1.911-.143 2.531-.431.644-.299 1.806-1.032 1.595-1.67zM2.371 11.877c-.743-2.436-1.178-4.885-1.212-5.572-.109-2.171.417-3.683 1.562-4.493 1.837-1.299 4.84-.541 6.108-.13-2.034 2.053-1.986 5.545-1.981 5.759l.016.359c.035.587.1 1.68-.074 2.918-.161 1.15.194 2.276.973 3.089.081.084.165.163.252.237l-1.902 2.158c-.568.683-.96.552-1.089.509-.392-.131-.813-.587-1.238-1.322-.48-.839-.963-2.032-1.415-3.513zm6.007 5.087c-.171-.043-.327-.113-.432-.177.089-.039.237-.09.483-.141 1.283-.264 1.482-.451 1.914-1l.367-.443a.355.355 0 0 0 .074-.13c.171-.151.272-.11.437-.042.156.065.308.26.37.475.029.102.062.294-.045.444-.904 1.266-2.222 1.249-3.168 1.013zm2.094-3.988l-.053.141-.333 1.003c-.667-.002-1.317-.287-1.81-.802-.628-.655-.913-1.566-.782-2.5.183-1.308.115-2.447.079-3.059l-.012-.22c.296-.262 1.666-.996 2.643-.772.446.102.718.406.831.928.585 2.704.077 3.831-.33 4.736l-.231.545zm7.364 4.572l-.062.596-.146.438a.355.355 0 0 0-.018.108c-.006.475-.054.649-.115.869-.063.229-.135.489-.179 1.058-.11 1.414-.878 2.227-2.417 2.557-1.515.325-1.784-.497-2.021-1.222a6.582 6.582 0 0 0-.077-.227c-.215-.586-.191-1.412-.157-2.555.017-.561-.025-1.901-.33-2.646l.019-.892a.353.353 0 0 0-.015-.113 1.493 1.493 0 0 0-.044-.208c-.123-.428-.421-.787-.78-.935-.142-.059-.404-.167-.718-.087.067-.276.183-.588.309-.925l.053-.142.213-.501c.427-.948 1.011-2.245.377-5.177-.237-1.098-1.03-1.634-2.232-1.51-.721.075-1.38.365-1.709.532a5.672 5.672 0 0 0-.196.104c.092-1.106.439-3.174 1.736-4.482a4.031 4.031 0 0 1 .303-.276.353.353 0 0 0 .145-.064c.752-.571 1.694-.851 2.802-.832.409.007.802.034 1.174.081 1.939.354 3.244 1.447 4.036 2.383.814.962 1.255 1.931 1.431 2.454-1.323-.135-2.223.127-2.68.779-.993 1.419.543 4.173 1.281 5.496l.289.541c.24.582.552.971.779 1.255l.189.245c-.401.116-1.121.383-1.055 1.717l-.083.815c-.046.208-.07.46-.099.766zm.89-1.621c-.041-.832.269-.918.597-1.011a2.857 2.857 0 0 0 .135-.041 1.202 1.202 0 0 0 .134.103c.57.377 1.582.421 3.007.134-.202.177-.519.399-.953.601-.41.19-1.096.333-1.747.364-.72.034-1.086-.081-1.172-.151zm.57-9.271c-.006.351-.054.669-.105 1.002l-.126 1.176c-.014.437.04.891.093 1.33.107.887.216 1.8-.207 2.701a3.527 3.527 0 0 1-.188-.386 7.57 7.57 0 0 0-.325-.616c-.616-1.104-2.057-3.69-1.319-4.745.38-.543 1.341-.566 2.178-.463zm.228 7.014a12.376 12.376 0 0 0-.085-.107l-.035-.044c.726-1.2.584-2.386.458-3.438l-.088-1.223c.013-.406.067-.754.119-1.091.064-.415.129-.844.111-1.351a.56.56 0 0 0 .012-.19c-.046-.486-.6-1.938-1.729-3.253-.608-.707-1.49-1.497-2.689-2.039A9.25 9.25 0 0 1 17.62.746c2.052.046 3.675.814 4.824 2.282a.908.908 0 0 1 .067.1c.723 1.356-.276 6.275-2.987 10.541zm-8.817-6.116c-.025.179-.309.423-.621.423a.582.582 0 0 1-.081-.006c-.187-.026-.377-.144-.506-.316-.046-.061-.12-.178-.105-.284.005-.04.026-.098.092-.149.118-.089.352-.123.61-.087.316.044.643.194.611.419zm7.931-.411c.011.079-.049.201-.153.31-.068.072-.212.196-.408.223a.546.546 0 0 1-.075.005c-.294 0-.541-.234-.561-.372-.024-.176.264-.311.561-.352s.611.009.636.185z"/></svg>