<svg xmlns="http://www.w3.org/2000/svg" viewBox="0 0 24 24" xmlns:v="https://vecta.io/nano"><path d="M12 0C5.373 0 0 5.373 0 12s5.373 12 12 12a12 12 0 0 0 12-12c0-6.627-5.372-12-12-12zm0 1.113c6.003 0 10.887 4.884 10.887 10.887S18.003 22.887 12 22.887 1.113 18.003 1.113 12 5.997 1.113 12 1.113zm7.03 5.201c-.536-.002-1.28.304-2.255 1.098l-3.814 3.045 1.025 1.3c4.694-2.558 6.19-3.167 6.116-4.294-.042-.634-.384-1.146-1.073-1.149zm-.507.752c.147 0 .266.106.266.239s-.119.238-.266.238-.265-.106-.265-.238c0-.171.162-.239.265-.239zm-1.58 1.489c0 .131-.118.238-.265.238s-.264-.107-.264-.238.11-.234.24-.24.29.077.29.24zm-2.109 1.01c.147 0 .266.106.266.238s-.12.238-.266.238-.266-.106-.266-.238c0-.148.139-.239.266-.239zm-2.445.972c-1.502.225-5.807.992-8.01 2.672l3.574 5.387s4.706-2.932 5.863-6.244z"/></svg>